<svg width="1000" height="600" viewBox="0 0 1000 600" fill="none" xmlns="http://www.w3.org/2000/svg">
<path d="M956.312 155.909L956.021 155.711V156.008L956.312 155.909V155.909ZM953.4 153.24L954.079 152.943V152.547L953.4 153.24ZM965.436 145.527L965.339 144.143L965.144 143.352L965.436 145.527H965.436ZM923.019 135.343L922.34 135.64L916.807 137.321L914.866 138.013L912.633 138.705L911.857 139.001V139.298L912.148 144.44L912.439 149.186L912.73 153.536L913.216 153.833L914.963 153.338L922.825 150.965L923.019 151.46L936.996 146.022L937.093 146.219L938.355 145.725L942.82 143.945L947.091 149.186L947.673 148.691L947.964 147.208L947.867 149.581H948.838L949.129 150.768L950.003 152.449L954.565 146.813L958.35 148.098L959.224 146.12L965.436 142.759L962.815 137.518L963.494 140.88L960.291 143.352L956.7 143.649L949.517 135.837L946.314 130.894L949.517 127.433L946.217 127.235L944.858 123.972L944.761 123.775L939.229 129.905L926.999 134.058L923.019 135.343Z" fill="#F9F9F9" stroke="black" stroke-width="0.970631" stroke-linejoin="round"/>
<path d="M558.547 75.2265L560.488 82.2467L564.565 107.559L566.506 117.644L567.089 126.543L569.321 131.882L569.806 136.431L570.195 137.914L570.098 138.21L566.215 144.736L568.739 149.087L573.592 183.891L573.786 188.439L578.639 188.143L597.761 187.055L645.516 183.001L650.272 182.507V182.012L648.913 174.399L642.992 171.334L638.333 166.39L630.956 161.842L628.627 161.644L625.035 158.875L626.006 145.231L622.609 142.067L623.773 136.53L629.986 130.795L628.918 118.93L631.15 116.359L638.721 108.251L647.36 96.9792L650.66 94.6062L656.484 91.7388L662.599 87.0916L658.522 87.8826L656.096 86.004L646.777 87.2894L645.322 85.5096L636.974 88.9703L630.277 86.1029L628.433 83.8287L623.094 84.2242L619.503 82.3456L620.667 80.9613L616.106 79.4782H612.029L605.526 82.3456L604.264 80.3681L593.975 78.8849L590.481 69.9861L590.093 67.3165L585.628 66.0311L586.016 73.6445L574.174 74.5344L559.518 75.1276L558.547 75.2265L558.547 75.2265Z" fill="#F9F9F9" stroke="black" stroke-width="0.970631" stroke-linejoin="round"/>
<path d="M465.658 74.3366L433.53 72.1614L410.138 69.8872L386.842 67.1187L372.38 65.1412L349.279 61.4828L337.729 59.5052L311.91 54.4626L309.192 53.8693L305.018 74.04L306.862 77.6984L308.318 83.3343L307.445 84.1253L309.289 89.2669L311.813 91.4421L318.995 103.703L319.675 105.779L322.587 105.581L319.189 121.797L317.831 122.193L315.986 127.631L325.596 128.323L326.372 132.871L331.808 146.417L332.778 147.208L336.564 155.118L337.534 154.327L345.591 154.228L355.782 155.316L358.306 151.954L361.315 157.491L361.897 157.788L361.994 157.195L363.353 147.505L396.549 151.657L423.047 154.228L437.024 155.415L461.969 156.898L463.231 156.997H463.522L463.619 155.613L463.911 148.79L464.299 139.792L464.396 137.518L464.59 133.563L466.143 102.516L467.405 78.3905L467.502 74.4355L465.658 74.3366L465.658 74.3366Z" fill="#F9F9F9" stroke="black" stroke-width="0.970631" stroke-linejoin="round"/>
<path d="M556.509 75.2265L527.196 75.8197L506.715 75.7209L489.147 75.3254L468.57 74.5344L467.502 74.4355L467.405 78.3905L466.143 102.516L464.59 133.563L464.396 137.518L468.181 137.716L510.986 138.903L550.491 138.606L566.895 138.112L570.195 137.914L569.806 136.431L569.321 131.882L567.089 126.543L566.506 117.644L564.565 107.559L560.488 82.2467L558.547 75.2265H556.509L556.509 75.2265Z" fill="#F9F9F9" stroke="black" stroke-width="0.970631" stroke-linejoin="round"/>
<path d="M416.35 524.617L413.341 522.343L410.72 523.035L411.302 528.572L407.711 533.121L410.817 540.338L411.691 547.754L415.282 550.127L417.514 546.469L421.494 543.503L426.347 542.217L431.686 537.57L426.444 533.022L426.347 530.253L416.35 524.617H416.35ZM398.684 516.608L397.228 515.323L395.869 517.202L398.684 516.608ZM391.404 512.357L391.793 508.698L389.948 508.402L391.404 512.357ZM397.519 506.325L395.869 507.116L397.034 510.873L399.558 511.071L400.334 514.334L403.052 515.521L409.07 512.653L403.44 507.907L397.519 506.325ZM385.095 502.271L384.222 504.941L388.395 504.842L392.278 505.831L390.24 502.568L385.095 502.271V502.271ZM372.865 494.46L370.633 492.285L366.362 495.647L369.08 500.788L371.021 498.712L376.554 499.898L376.068 497.525L372.865 494.46ZM329.381 490.11L329.963 488.725L331.614 487.835L329.381 490.11ZM344.814 481.112L338.02 483.683L337.34 485.561L340.058 487.539L343.844 488.528L346.561 483.089L344.814 481.112ZM297.739 462.919V462.82H297.544L297.739 462.919ZM246.295 449.966V450.164H246.392L246.295 449.966ZM219.312 445.418L219.409 445.517L219.312 445.418ZM217.37 442.451H217.176V442.55L217.37 442.451ZM218.05 442.451H217.953H218.05ZM217.953 442.352V442.451V442.352ZM187.475 416.843L187.378 416.546V416.645L187.475 416.843V416.843ZM120.987 395.189L120.695 395.485L120.889 395.584L120.987 395.189L120.987 395.189ZM53.0424 345.355H52.9453H53.0424ZM11.1111 326.767L11.4023 326.668V326.47L11.1111 326.767V326.767Z" fill="#F9F9F9" stroke="black" stroke-width="0.970631" stroke-linejoin="round"/>
<path d="M309.095 53.8693L300.456 52.0896L297.641 51.3974L296.38 51.1008L285.12 102.714L285.606 106.966L285.217 111.415L285.411 112.404V112.503L285.509 114.381L288.809 118.04L284.053 130.201L273.958 143.649L273.667 146.12L276.288 152.449L267.067 191.406L266.678 193.482L269.396 194.075L296.865 199.612L307.833 201.689L310.648 202.183L313.366 202.677L327.343 204.952L352.385 208.808L355.2 209.203L355.588 205.94L356.462 199.513L359.762 173.806L361.509 161.051L361.897 157.788L361.315 157.491L358.306 151.954L355.782 155.316L345.591 154.228L337.534 154.327L336.564 155.118L332.778 147.208L331.808 146.417L326.372 132.871L325.596 128.323L315.986 127.631L317.831 122.193L319.19 121.797L322.587 105.581L319.675 105.779L318.995 103.703L311.813 91.4422L309.289 89.2669L307.445 84.1254L308.318 83.3344L306.862 77.6985L305.018 74.0401L309.192 53.8694H309.095V53.8693Z" fill="#F9F9F9" stroke="black" stroke-width="0.970631" stroke-linejoin="round"/>
<path d="M192.134 78.4894L192.231 76.8085L192.037 76.9074L192.134 78.4894ZM212.808 69.4917L213.391 68.5029L212.711 68.4041L212.808 69.4917ZM210.964 67.7119L211.546 65.7344L210.964 65.5367V67.7119ZM218.05 64.8445L217.953 62.867L216.303 65.4378L218.05 64.8445ZM218.244 60.6917L218.535 58.7142L218.341 58.2199L218.244 60.6917ZM218.535 51.0019L218.438 49.9143L218.05 49.8154L218.535 51.0019ZM221.641 44.4761L220.767 44.3772L219.02 47.1458L221.641 44.4761ZM219.214 41.8065L219.7 41.411L219.797 41.1143L219.214 41.8065ZM218.729 42.1031L218.438 40.1256L217.564 41.8065L218.729 42.1031ZM218.244 39.3346L217.37 38.9391L218.05 39.9278L218.244 39.3346ZM221.156 41.0155V39.7301L220.865 40.2244L221.156 41.0155ZM222.029 39.7301L221.641 39.4334H221.544L222.029 39.7301ZM216.497 37.5548L216.011 37.1593L215.817 37.0604L216.497 37.5548ZM220.088 37.1593L217.467 37.8514L218.147 38.0492L220.088 37.1593ZM217.953 36.9615L217.467 36.3683L217.37 36.4672L217.953 36.9615ZM219.991 35.775H219.603L220.088 35.9728L219.991 35.775ZM200.967 86.4983L204.461 90.3545L203.878 97.7702L204.558 99.6488L209.799 102.516L224.553 103.9L225.135 105.68L232.124 105.779L238.724 106.669L249.498 105.483L254.837 106.372L256.293 105.68L283.567 112.008L285.411 112.404L285.217 111.415L285.606 106.966L285.12 102.714L296.38 51.1008L294.827 50.8042L272.114 45.366L252.313 40.2245L229.891 33.8964L223.194 32.2155L224.747 40.8177L223.291 43.5863L220.67 42.202L223.194 54.166L220.476 58.121L219.214 61.7794V65.5367L213.488 69.5906L211.061 68.0086L208.732 69.1951L213.002 63.5592L211.935 67.4153L214.361 64.7457L216.303 65.1412L215.72 60.1974L216.982 60.3952L219.603 54.4626L218.729 53.5727L215.332 58.0221L213.099 58.121L215.526 55.3525L218.244 54.6604L217.273 49.6177L214.555 48.9256L213.197 46.5525L211.546 47.4424L202.617 43.4874L194.755 37.2582L192.619 43.2896L192.425 45.8604L194.075 50.4087L193.007 65.1412L192.231 67.4153L196.599 67.8108L192.231 70.9749L194.56 72.1614L192.716 78.4894L191.843 73.5456L190.193 79.2804L192.425 82.049L194.852 81.8512L197.763 83.631L199.219 86.4984L200.967 86.4983Z" fill="#F9F9F9" stroke="black" stroke-width="0.970631" stroke-linejoin="round"/>
<path d="M372.186 315.693L339.476 311.54L321.907 308.969L296.865 304.915L294.341 304.52V304.717L290.071 323.899L287.838 323.8L284.441 320.735L280.17 324.394L280.073 340.115L278.52 343.477V343.773V343.872L278.326 346.344L281.723 355.638L284.732 359.791L279.296 363.054L277.161 367.108L273.667 375.809L271.92 376.205L271.823 383.423L274.832 385.697L273.279 390.047L269.784 390.245L267.746 394.101L274.734 398.551L287.935 406.065L328.702 428.114L363.256 432.465H363.644L366.362 403.297L367.042 396.079L374.321 319.549L374.71 315.989L372.186 315.693H372.186Z" fill="#F9F9F9" stroke="black" stroke-width="0.970631" stroke-linejoin="round"/>
<path d="M206.014 370.569L206.402 372.744V373.139L206.014 370.569ZM191.746 362.065L192.425 363.548L192.813 363.45L191.746 362.065V362.065ZM208.732 361.769L209.023 364.339L210.77 365.625L208.732 361.769ZM196.987 347.728L195.919 347.432L196.793 347.827L196.987 347.728V347.728ZM186.213 344.762L183.592 346.344L184.272 347.036L186.213 344.762ZM181.166 342.883L180.972 343.674L181.845 343.872L181.166 342.883ZM189.707 344.861L193.978 347.333L194.755 346.641L189.707 344.861ZM156.609 257.751L156.512 257.85L156.609 257.751ZM166.994 258.246L166.897 257.949V258.345L166.994 258.246V258.246ZM223 183.199L219.214 182.21L177.671 170.543L162.238 165.797V166.192L161.365 175.981L157.288 187.549L150.494 196.152L150.3 200.502L153.6 206.534L155.25 214.444L152.92 220.871L153.309 227.298L152.144 229.967L156.123 238.767L158.647 242.129L158.453 251.72L164.471 257.554L167.965 251.621L171.751 254.686L173.207 253.302L167.965 254.291L167.868 259.333L168.936 265.661L166.024 262.794L164.374 258.938L163.888 264.277L165.247 274.857L170.683 281.679L167.092 286.425L167.674 292.457L171.556 298.587L178.351 317.571L180.486 318.758L179.807 331.908L180.874 333.49L195.434 338.829L199.899 343.674L201.452 346.838L205.723 349.31L210.382 350.2L212.323 355.638L216.205 357.517L222.029 364.537L227.465 373.733L227.077 382.236L230.085 386.29L269.784 390.245L273.279 390.047L274.832 385.697L271.823 383.423L271.92 376.205L273.667 375.809L277.161 367.108L279.296 363.054L284.732 359.791L281.723 355.638L278.326 346.344L278.52 343.872V343.773L275.996 340.313L268.231 329.733L253.187 308.178L232.221 277.526L220.379 260.816L208.926 244.008L222.126 186.956L223 183.199L223 183.199Z" fill="#F9F9F9" stroke="black" stroke-width="0.970631" stroke-linejoin="round"/>
<path d="M489.632 260.322L490.021 240.942L485.362 240.745L461.678 239.855L459.349 239.756L457.407 239.657L428.58 237.778L409.361 236.196L385.387 233.823L383.057 233.527L382.766 236.097L377.524 287.612L375.68 305.607L374.904 313.418L374.71 315.989L377.719 316.286L426.638 320.636L448.186 322.021L469.637 323.009L472.743 323.108L474.685 323.207L478.761 323.306L480.703 323.405L486.817 323.603H488.37V321.625L489.438 269.32L489.535 263.486V261.608L489.632 260.322L489.632 260.322Z" fill="#F9F9F9" stroke="black" stroke-width="0.970631" stroke-linejoin="round"/>
<path d="M294.827 301.355L304.921 237.383L310.066 205.347L310.648 202.183L307.833 201.689L296.865 199.612L269.396 194.075L266.678 193.482L263.961 192.889L250.275 189.824L225.718 183.891L223 183.199L222.126 186.956L208.926 244.008L220.379 260.816L232.221 277.526L253.187 308.178L268.231 329.733L275.996 340.313L278.52 343.773V343.477L280.073 340.115L280.17 324.394L284.441 320.735L287.838 323.8L290.071 323.899L294.341 304.717V304.52L294.827 301.356L294.827 301.355Z" fill="#F9F9F9" stroke="black" stroke-width="0.970631" stroke-linejoin="round"/>
<path d="M472.452 330.821L472.549 328.25L472.646 325.679L472.743 323.108L469.637 323.009L448.186 322.021L426.638 320.636L377.719 316.286L374.71 315.989L374.321 319.549L367.042 396.079L366.362 403.297L363.644 432.465L364.033 432.564L377.427 433.849L378.689 426.928L381.116 424.95L408.294 427.422H408.488L406.061 422.577L418.388 423.467L449.157 425.247L468.376 426.137L471.676 333.391L472.355 333.49L472.452 330.821L472.452 330.821Z" fill="#F9F9F9" stroke="black" stroke-width="0.970631" stroke-linejoin="round"/>
<path d="M162.238 165.797L177.671 170.543L219.214 182.21L223 183.199L225.718 183.891L250.275 189.824L263.961 192.889L266.678 193.482L267.067 191.406L276.288 152.449L273.667 146.12L273.958 143.649L284.053 130.201L288.809 118.04L285.509 114.381L285.411 112.503V112.404L283.567 112.008L256.293 105.68L254.837 106.372L249.498 105.482L238.724 106.669L232.124 105.779L225.135 105.68L224.553 103.9L209.799 102.516L204.558 99.6488L203.878 97.7701L204.461 90.3544L200.967 86.4983L200.675 86.5972L199.996 87.0915L195.143 84.5208L192.231 85.4106L190.29 84.4219L188.251 92.9252L186.892 95.2982L180.874 110.228L179.127 118.435L178.06 118.534L172.43 132.179L168.645 138.013L167.286 139.001L163.791 145.923L163.112 153.24L160.977 159.765L162.238 165.698V165.797L162.238 165.797ZM197.764 84.6197L197.472 83.7298L197.375 84.422L197.763 84.6197H197.764Z" fill="#F9F9F9" stroke="black" stroke-width="0.970631" stroke-linejoin="round"/>
<path d="M352.385 208.808L327.343 204.952L313.366 202.677L310.648 202.183L310.066 205.347L304.921 237.383L294.827 301.356L294.341 304.52L296.865 304.915L321.907 308.969L339.476 311.54L372.186 315.693L374.71 315.989L374.904 313.418L375.68 305.607L377.524 287.612L382.766 236.097L383.057 233.527L381.116 233.329L356.365 230.264L352.579 229.769L355.006 210.489L355.2 209.203L352.385 208.808Z" fill="#F9F9F9" stroke="black" stroke-width="0.970631" stroke-linejoin="round"/>
<path d="M461.387 195.756L462.163 180.332L463.134 159.568L463.231 156.997L461.969 156.898L437.024 155.415L423.047 154.228L396.549 151.657L363.353 147.505L361.994 157.195L361.897 157.788L361.509 161.051L359.762 173.806L356.462 199.513L355.588 205.94L355.2 209.203L355.006 210.489L352.579 229.769L356.365 230.264L381.116 233.329L383.057 233.527L385.387 233.823L409.361 236.196L428.58 237.778L457.407 239.657L459.349 239.756L459.446 237.185L459.931 226.803L460.805 208.709L461.193 200.997L461.29 198.426L461.387 195.756H461.387Z" fill="#F9F9F9" stroke="black" stroke-width="0.970631" stroke-linejoin="round"/>
<path d="M690.456 334.182L679.973 335.764L684.244 328.843L682.4 324.987L645.419 328.645L614.164 331.216L609.602 331.513L610.185 334.281L613.97 354.254L614.067 358.704L615.135 385.598L615.232 390.047L615.523 390.146L616.979 391.728L622.803 391.53L623.385 400.231L623.579 402.703L626.588 402.407L635.809 401.715L672.402 398.254H672.596L672.499 396.079L673.47 395.386L671.723 392.025L675.411 376.205L673.955 374.425L679.488 368.196L679.1 362.856L683.176 355.935V355.836L682.982 355.638L686.476 352.375L685.506 348.42L688.224 344.07L687.641 340.016L690.553 334.281V334.182H690.456V334.182Z" fill="#F9F9F9" stroke="black" stroke-width="0.970631" stroke-linejoin="round"/>
<path d="M661.531 201.392L656.193 198.525L653.281 194.471L652.31 188.637L653.087 185.967L650.272 182.507L645.516 183.001L597.761 187.055L578.639 188.143L573.786 188.439L571.748 188.538L573.398 199.513L572.039 204.754L574.174 208.017V208.709L574.854 208.808L577.96 218.102L580.969 222.947L581.163 228.484L584.463 233.131L583.881 235.109L586.89 247.567V247.864L606.787 247.271L628.044 245.392L648.913 242.722L653.669 246.974L653.863 247.172L654.737 246.776L654.057 242.92L657.649 240.646L659.104 230.561L657.649 229.868L658.522 224.727L662.89 223.837L667.743 220.277L669.879 214.048L669.976 210.884L666.093 207.127L664.928 204.754L661.24 202.381L661.434 201.887L661.531 201.392L661.531 201.392Z" fill="#F9F9F9" stroke="black" stroke-width="0.970631" stroke-linejoin="round"/>
<path d="M608.923 318.56L606.496 276.735L602.128 274.165L601.74 272.187L598.246 269.023L601.643 264.771L600.284 262.3L597.761 262.398L595.431 260.718L594.46 259.927L591.16 260.124L555.344 261.509L538.94 261.904H506.327L493.224 261.706L489.535 261.607V263.486L489.438 269.32L488.37 321.625V323.603L492.544 323.701L515.063 323.998L567.768 323.207L605.331 321.427L609.02 321.131L608.923 318.56L608.923 318.56Z" fill="#F9F9F9" stroke="black" stroke-width="0.970631" stroke-linejoin="round"/>
<path d="M653.669 246.974L648.913 242.722L628.044 245.392L606.787 247.27L586.89 247.864L586.792 248.457L589.219 253.203L591.451 254.785L594.072 259.531L594.46 259.927L595.431 260.718L597.761 262.398L600.284 262.3L601.643 264.771L598.246 269.023L601.74 272.187L602.128 274.165L606.496 276.735L608.923 318.56L609.02 321.131L609.214 323.701L609.311 326.272L609.505 328.942L609.602 331.513L614.164 331.216L645.419 328.645L682.4 324.987L684.244 328.843L679.973 335.764L690.456 334.182H690.553V333.391L690.747 328.843L692.688 326.371L692.106 323.603L692.009 323.504L691.912 323.405L692.3 322.119L692.883 322.317L693.174 323.108L693.077 323.405V323.504V324.295L693.465 324.394L694.241 323.405V323.306L694.338 323.009L696.862 321.427L697.25 321.23L698.124 313.122L697.93 312.726L697.639 312.627L690.747 306.893L691.815 304.816L689.874 299.18L686.379 296.412L679.779 293.445L675.605 289.985L676.091 282.866L677.352 276.241L670.364 276.636L668.229 274.362L667.258 269.814L656.193 260.322L653.087 251.522L653.863 247.171L653.669 246.974V246.974Z" fill="#F9F9F9" stroke="black" stroke-width="0.970631" stroke-linejoin="round"/>
<path d="M572.33 208.511L569.321 205.446L558.741 202.282L555.344 202.183L550.2 203.666L544.085 199.711L524.963 199.909L497.106 199.612L464.202 198.525L461.29 198.426L461.193 200.996L460.805 208.709L459.931 226.803L459.446 237.185L459.349 239.756L461.678 239.855L485.361 240.745L490.02 240.942L489.632 260.322L489.535 261.607L493.224 261.706L506.327 261.904H538.94L555.344 261.509L591.16 260.124L594.46 259.927L594.072 259.531L591.451 254.785L589.219 253.203L586.792 248.457L586.889 247.864V247.567L583.88 235.109L584.463 233.131L581.163 228.484L580.969 222.947L577.96 218.102L574.854 208.808L574.174 208.709L572.33 208.511L572.33 208.511Z" fill="#F9F9F9" stroke="black" stroke-width="0.970631" stroke-linejoin="round"/>
<path d="M609.505 328.942L609.311 326.272L609.214 323.701L609.02 321.131L605.331 321.427L567.768 323.207L515.063 323.998L492.544 323.701L488.37 323.603H486.817L480.702 323.405L478.761 323.306L474.685 323.207L472.743 323.108L472.646 325.679L472.549 328.25L472.452 330.82L472.355 333.49H472.937L496.427 334.083L521.275 334.38L521.566 368.195L523.313 374.128L527.196 377.885L531.369 378.083L532.243 376.303L537.97 381.643L545.443 382.434L546.802 384.016L549.52 382.73L556.314 385.993V387.872L558.838 387.773L561.459 385.499L566.312 388.663L570.874 390.344L573.98 385.993L583.88 390.739L587.569 387.674L590.578 386.487L593.004 387.081L602.128 384.411L606.981 386.487L611.349 389.355L615.135 390.047H615.232L615.135 385.598L614.067 358.703L613.97 354.254L610.184 334.281L609.602 331.513L609.505 328.942L609.505 328.942Z" fill="#F9F9F9" stroke="black" stroke-width="0.970631" stroke-linejoin="round"/>
<path d="M689 478.047L687.738 478.343L687.156 478.937L689 478.047ZM693.077 478.047L692.397 477.75L692.203 478.047H693.077ZM695.406 477.256H694.727L694.338 477.75L695.406 477.256ZM694.241 476.564L694.047 476.267L693.95 476.564H694.241ZM702.006 471.323L701.715 471.521H702.201L702.006 471.323ZM715.595 465.489L716.178 464.698L715.498 465.588L715.595 465.489V465.489ZM717.536 462.919L717.342 463.018V463.116L717.536 462.919V462.919ZM667.646 471.62L669.102 469.741L665.122 468.653L663.375 470.137L667.646 471.62ZM707.927 463.018L707.539 462.622L707.442 462.82L707.927 463.018ZM708.995 461.238L708.024 460.941L708.315 461.93L708.995 461.238ZM716.954 459.557V459.26V459.359V459.557V459.557ZM718.895 458.272L718.798 458.173L718.895 458.37V458.271V458.272ZM718.119 458.074L717.925 457.975L717.828 458.271L718.119 458.074L718.119 458.074ZM711.324 457.777L712.198 457.481V457.184L711.324 457.777ZM711.81 457.283L712.295 456.788L712.198 456.689L711.81 457.283L711.81 457.283ZM708.413 453.624L708.218 453.822H708.316L708.413 453.624H708.413ZM672.596 398.254H672.402L635.809 401.715L626.588 402.407L623.579 402.703L623.677 405.076L625.618 424.159L628.821 428.708L628.918 431.377L632.024 436.914L634.548 445.022L633.674 449.57L632.995 460.842L631.539 464.501H631.733L632.024 467.071L630.374 469.444L642.41 468.06L651.825 470.73L658.522 471.62L661.919 469.148L660.075 466.676L666.287 464.698L666.093 466.874L669.296 466.083L671.917 470.235L674.149 469.444L679.973 473.498L676.382 474.784L684.632 477.256H687.738L689.582 474.982L693.562 472.806L696.377 476.959L698.318 473.202L697.736 467.269L702.977 469.346L703.56 471.125L709.772 471.916L712.878 474.487L712.489 476.564L716.857 472.411L715.207 470.235L707.927 468.357L705.21 466.775L705.112 463.809L708.121 464.204L710.451 459.359L707.442 455.107L705.792 459.161L702.006 458.469L704.627 454.119L702.88 453.624L698.609 456.689L692.494 457.085L690.747 455.701L693.562 450.658L696.862 450.559L702.492 452.438L706.568 452.833L704.336 449.966L700.065 441.463L701.23 436.717L667.743 440.474L669.005 439.188L667.646 435.629L669.684 432.564L670.849 424.851L678.226 411.998L674.635 407.548L674.829 404.285L672.596 398.946V398.254H672.596Z" fill="#F9F9F9" stroke="black" stroke-width="0.970631" stroke-linejoin="round"/>
<path d="M573.98 546.963L569.321 529.067V532.428L573.98 546.963ZM572.912 515.521L569.612 521.849L569.224 523.925L572.912 515.521ZM575.533 510.873L578.639 506.721L576.407 508.105L575.533 510.873ZM586.501 500.788L579.222 504.644L581.26 504.249L586.501 500.788ZM587.472 499.404L589.51 497.723L588.734 497.921L587.472 499.404ZM472.355 333.49L471.676 333.391L468.375 426.137L449.157 425.247L418.388 423.467L406.061 422.577L408.488 427.422L408.585 427.521L419.067 438.2L425.085 445.418L433.045 451.449L438.674 461.93L440.81 472.905L445.372 475.97L448.963 480.024L454.107 481.903L461.581 486.748L464.978 488.033L469.637 483.287L471.093 478.244L473.52 473.4L481.091 470.334L484.003 471.818L492.447 472.51L500.115 477.355L505.357 478.343L503.901 481.112L506.91 483.089L509.724 486.55L510.307 490.208L512.151 492.68L516.422 503.161L520.693 506.82L523.993 512.357L528.166 516.707L530.011 517.3L531.564 528.572L536.126 531.143L536.32 534.703L537.484 534.406L545.444 544.294L549.423 545.183L554.471 548.249H562.236L567.865 551.413L574.563 549.929L571.554 547.062L568.836 538.757L567.768 531.539L566.215 529.165L566.895 524.321L564.856 524.123L562.138 519.575L565.245 522.936L568.836 521.651L570.777 516.411L566.895 511.071L572.718 511.763L575.436 507.512L575.048 506.029L577.474 502.766L576.892 505.633L579.61 503.458L578.542 499.602L582.036 501.48L586.501 498.91L582.133 494.262L584.851 495.35L589.899 495.647L596.499 494.163L603.876 489.121L608.341 485.363L609.02 482.595L611.738 479.728L610.282 474.982L610.573 472.015L615.426 469.84L615.038 475.08H617.95L614.747 477.849L627.656 470.928L629.792 470.829L631.15 464.501H631.539L632.995 460.842L633.674 449.57L634.548 445.022L632.024 436.914L628.918 431.377L628.821 428.708L625.618 424.159L623.676 405.076L623.579 402.703L623.385 400.231L622.803 391.53L616.979 391.728L615.523 390.146L615.232 390.047H615.135L611.349 389.355L606.982 386.488L602.128 384.411L593.004 387.081L590.578 386.488L587.569 387.674L583.88 390.739L573.98 385.993L570.874 390.344L566.312 388.663L561.459 385.499L558.838 387.773L556.315 387.872V385.993L549.52 382.73L546.802 384.016L545.444 382.434L537.97 381.643L532.243 376.303L531.369 378.083L527.196 377.885L523.313 374.128L521.566 368.196L521.275 334.38L496.427 334.083L472.937 333.49H472.355L472.355 333.49Z" fill="#F9F9F9" stroke="black" stroke-width="0.970631" stroke-linejoin="round"/>
<path d="M936.996 146.022L923.019 151.46L922.825 150.965L914.963 153.338L913.216 153.833L913.41 154.822L917.098 169.356L918.263 170.839L915.739 174.003L917.487 175.684L923.116 170.147L926.125 165.896L926.708 167.082L940.879 160.655L941.17 160.359L941.073 157.986L940.49 155.909L937.482 147.307L937.093 146.219L936.996 146.022H936.996Z" fill="#F9F9F9" stroke="black" stroke-width="0.970631" stroke-linejoin="round"/>
<path d="M923.893 77.4018L922.631 78.9838L921.175 78.6872L920.398 85.213V85.3118L922.728 94.2107L922.534 95.9904L918.36 101.626L919.428 106.768V113.195L918.651 119.127L923.019 135.343L926.999 134.058L939.229 129.905L944.761 123.775V122.193L945.052 119.622L944.373 119.918L944.276 119.325L938.161 111.712L937.967 111.02L923.893 77.4018H923.893Z" fill="#F9F9F9" stroke="black" stroke-width="0.970631" stroke-linejoin="round"/>
<path d="M946.508 154.92L946.411 152.844L946.12 153.635L946.508 154.92H946.508ZM948.45 153.338L947.188 150.867L947.091 153.437L948.45 153.338V153.338ZM947.867 150.273L948.547 152.053L949.42 153.635L950.003 152.449L949.129 150.768L948.838 149.581H947.867V150.273ZM937.093 146.219L937.482 147.307L940.49 155.909L941.073 157.986L941.17 160.359L941.364 160.062L946.023 156.305L945.15 149.581L947.091 149.186L942.82 143.945L938.355 145.725L937.093 146.219H937.093Z" fill="#F9F9F9" stroke="black" stroke-width="0.970631" stroke-linejoin="round"/>
<path d="M923.019 135.343L918.651 119.127L919.428 113.195V106.768L918.36 101.626L922.534 95.9904L922.728 94.2107L920.398 85.3118L919.137 85.8062L913.798 87.7837L908.557 89.8601L896.521 94.3095L895.841 94.5073L900.209 104.889L901.665 114.678L906.81 122.885L911.663 139.1L911.857 139.001L912.633 138.705L914.866 138.013L916.807 137.32L922.34 135.64L923.019 135.343V135.343Z" fill="#F9F9F9" stroke="black" stroke-width="0.970631" stroke-linejoin="round"/>
<path d="M854.687 545.282H854.493L854.59 545.381L854.687 545.282H854.687ZM853.813 545.183V545.282H853.91L853.813 545.183ZM854.007 545.084V544.986V545.084ZM840.807 546.568V546.667V546.568ZM840.613 546.667V546.568V546.667ZM839.739 546.667H839.642V546.765L839.739 546.667ZM867.305 540.437H867.208L867.305 540.635V540.437ZM869.926 539.745V539.547L869.732 539.844L869.926 539.745V539.745ZM868.955 539.547L868.567 539.152L868.47 539.251L868.955 539.547L868.955 539.547ZM868.664 540.338L867.499 538.855L868.179 540.141L868.664 540.338ZM877.885 534.505V534.9L878.079 534.702L877.885 534.505ZM879.244 533.516L879.535 533.022L879.147 533.417L879.244 533.516V533.516ZM879.535 532.527H879.438V532.626L879.535 532.527ZM877.788 532.231L877.691 532.132L877.788 532.231ZM878.661 530.747L878.564 530.649V530.846L878.661 530.747V530.747ZM876.041 530.649L875.944 530.55L876.041 530.649ZM879.341 528.374L879.147 528.473L879.438 528.572L879.341 528.375V528.374ZM879.729 528.374L879.535 528.177L879.632 528.473L879.729 528.374L879.729 528.374ZM879.05 528.177L878.952 528.078V528.276L879.05 528.177V528.177ZM882.641 527.485V527.386L882.447 527.781L882.641 527.484V527.485ZM878.564 527.88H878.37L878.564 527.979V527.88ZM880.603 526.694H880.311L880.214 526.792L880.603 526.694H880.603ZM881.379 526.199H881.282H881.379ZM873.226 526.595V526.397L873.129 526.595H873.226ZM874.099 526.298H873.808L874.099 526.891V526.298ZM871.77 526.397V525.804L871.285 525.903L871.77 526.397ZM870.411 525.408L870.896 525.903V525.705L870.411 525.408ZM884.679 526.001L882.932 526.792L883.514 526.891L884.679 526.001V526.001ZM871.09 525.112H870.508V525.309L871.09 525.112ZM886.426 520.168L886.523 519.673L886.621 518.388L886.426 520.168H886.426ZM886.523 514.631L886.135 513.642L885.941 514.037L886.523 514.631ZM864.102 517.103L863.908 517.399L864.393 517.498L864.102 517.103V517.103ZM862.258 516.213L861.384 516.509L862.064 516.608L862.258 516.213V516.213ZM860.316 516.41V516.114L860.219 516.213L860.316 516.411V516.41ZM858.278 516.312L857.696 516.707L858.472 517.103L858.278 516.312ZM860.996 516.41L860.899 516.114L860.413 516.015L860.996 516.41V516.41ZM848.281 506.721L847.698 507.017L848.863 507.413L848.281 506.721ZM845.951 503.557L845.175 502.37L845.466 503.26L845.951 503.557ZM848.96 505.534L847.601 502.37L846.631 502.073L848.96 505.534ZM845.078 501.579L844.786 500.788L844.592 500.294L845.078 501.579ZM837.021 490.604L835.274 489.318L835.954 490.011L837.021 490.604ZM880.7 483.979L873.614 471.916H873.226L880.7 483.979ZM831.683 464.698L831.392 464.599L831.683 464.797V464.698V464.698ZM831.1 464.006L831.003 464.105L831.1 464.204V464.006V464.006ZM830.421 463.018V462.919L830.324 463.018H830.421ZM830.809 462.622L831.1 462.82V462.622H830.809ZM831.392 462.227L831.003 462.325H831.1L831.392 462.227H831.392ZM830.712 462.128L830.421 461.831L830.518 461.93L830.712 462.128V462.128ZM830.033 461.04H829.839L830.13 461.139L830.033 461.04H830.033ZM830.712 459.853H830.324L830.227 459.952L830.712 459.853H830.712ZM831.1 460.051L830.615 459.557L830.809 459.656L831.1 460.051V460.051ZM827.412 455.8L827.218 455.701V455.8H827.412ZM823.238 455.8L822.947 455.404L823.044 455.898L823.238 455.799V455.8ZM787.907 452.537L790.819 450.262L787.616 452.438L787.907 452.537V452.537ZM793.731 447.791L794.022 447.494L792.858 447.988L793.731 447.791ZM756.847 441.166L746.267 444.627L752.091 442.946L756.847 441.166ZM783.151 424.357L780.336 424.851L738.405 431.773L742.773 441.957L743.064 442.056L741.997 446.11L745.103 444.725L748.5 441.66L754.323 441.463L761.021 438.991L765.583 439.683L764.515 441.364L772.863 444.231L780.045 447.791L781.695 451.746L787.034 450.559L799.652 440.078L804.311 440.276L823.335 454.91L827.218 454.119L831.295 459.656L832.071 468.456L830.809 473.993L831.392 476.761L834.789 483.683L833.236 478.244L837.604 478.145L837.992 482.101L835.662 488.231L843.719 499.503L846.728 499.602L844.204 496.141L847.31 496.536L849.154 495.35L848.378 501.678L852.551 505.04L855.366 512.752L859.152 515.125L864.005 516.41L870.702 525.112L874.196 526.99L869.537 527.287L871.673 529.759L879.341 527.188L883.126 525.013L886.621 512.554L884.873 493.175L884.485 491.197L875.167 475.377L867.208 463.907L862.743 454.514L866.529 457.777L867.305 457.184L868.955 465.391L873.226 471.62L869.052 463.314L869.246 459.359L856.725 443.836L853.716 438.991L849.737 430.784L847.019 423.863L844.883 421.391L844.398 418.227L844.301 418.128L837.604 417.732L834.983 419.809L833.527 427.422L832.168 423.863L786.354 429.696L783.054 424.456L783.151 424.357V424.357Z" fill="#F9F9F9" stroke="black" stroke-width="0.970631" stroke-linejoin="round"/>
<path d="M845.854 403.494L845.757 400.528L845.077 403.099L845.854 403.494H845.854ZM846.922 398.946L846.533 396.672L846.242 398.056L846.922 398.946ZM801.496 336.654L800.234 336.951L796.546 337.742L782.957 340.609L781.695 340.906L780.336 341.104L772.765 342.587L770.727 342.982L762.477 344.564L760.73 344.762L760.827 344.96L773.833 385.301L781.016 398.353L779.269 400.33L778.201 408.043L780.336 411.998L780.531 419.216L783.151 424.258V424.357L783.054 424.456L786.354 429.696L832.168 423.863L833.527 427.422L834.983 419.809L837.604 417.733L844.301 418.128L843.719 407.449L844.98 405.175L844.301 400.924L845.66 396.87L847.698 394.596L846.242 393.211L849.639 388.96H849.542L843.719 383.423L835.759 371.854L831.392 369.778L812.658 353.76L808.096 347.827L799.264 344.07L798.778 342.092L801.496 336.654V336.654Z" fill="#F9F9F9" stroke="black" stroke-width="0.970631" stroke-linejoin="round"/>
<path d="M716.76 451.054L716.275 451.153V451.251L716.76 451.054V451.054ZM725.787 449.867H724.428L725.69 449.966L725.787 449.867H725.787ZM714.528 450.856L714.139 451.251L714.236 451.35L714.528 450.856L714.528 450.856ZM723.651 450.065H719.963L723.457 450.164L723.651 450.065ZM683.176 355.836V355.935L679.099 362.856L679.488 368.196L673.955 374.425L675.411 376.205L671.723 392.025L673.47 395.387L672.499 396.079L672.596 398.254V398.946L674.829 404.285L674.635 407.548L678.226 411.998L670.849 424.852L669.684 432.564L667.646 435.629L669.005 439.189L667.743 440.474L701.23 436.717L700.065 441.463L704.336 449.966L706.568 452.833V452.734L710.16 448.582L717.731 446.901L724.719 447.692L725.787 446.308V446.209L720.837 415.755L720.643 393.508L720.06 352.969L718.701 352.079L718.313 351.288H718.119L713.266 351.98L704.724 353.166L685.312 355.638L683.176 355.836L683.176 355.836Z" fill="#F9F9F9" stroke="black" stroke-width="0.970631" stroke-linejoin="round"/>
<path d="M801.496 336.654L798.778 342.092L799.264 344.07L808.096 347.827L812.658 353.76L831.392 369.778L835.759 371.854L843.719 383.423L849.542 388.96L850.513 384.411L848.96 380.061L853.134 383.225L855.463 381.346L851.484 377.984L856.337 377.688L863.908 371.162L863.034 369.481L867.693 365.823L867.208 364.043L870.605 361.868L870.799 356.825L876.138 346.74L879.729 342.092L880.117 341.895L858.472 327.953L850.416 329.535L839.448 329.14L834.012 326.272L801.787 336.654H801.496Z" fill="#F9F9F9" stroke="black" stroke-width="0.970631" stroke-linejoin="round"/>
<path d="M661.434 201.886L661.24 202.381L664.928 204.754L666.093 207.127L669.976 210.884L669.878 214.048L667.743 220.277L662.89 223.837L658.522 224.727L657.648 229.868L659.104 230.56L657.648 240.646L654.057 242.92L654.737 246.776L653.863 247.172L653.087 251.522L656.193 260.322L667.258 269.814L668.228 274.362L670.364 276.637L677.352 276.241L676.091 282.866L675.605 289.985L679.779 293.445L686.379 296.412L689.873 299.18L691.815 304.816L690.747 306.893L697.639 312.627L697.93 312.726L697.347 312.133L699.289 307.486L706.762 309.562L708.607 307.387L707.151 303.036L713.266 299.378L711.616 297.005L713.072 293.643V293.347L712.683 293.248L712.78 284.448L714.916 282.866L718.604 274.066L717.828 270.21L715.401 265.562L716.76 260.322L709.966 211.576L708.995 210.489L706.471 204.655L704.433 202.48L703.559 196.745V196.547L690.456 198.426L682.594 199.415L661.434 201.886Z" fill="#F9F9F9" stroke="black" stroke-width="0.970631" stroke-linejoin="round"/>
<path d="M750.344 203.963L735.493 206.633L732.096 207.325L720.06 209.302L717.536 211.379L713.751 213.158L712.295 213.059L710.548 212.169L709.966 211.576L716.76 260.322L715.401 265.562L717.828 270.21L718.604 274.066L714.916 282.866L712.78 284.448L712.683 293.248L713.072 293.347L713.46 293.248L714.916 290.479H718.507L722.875 288.996L728.31 291.072L728.893 288.798L731.999 286.425L736.658 287.117L739.182 282.075L746.073 282.668L745.976 279.801L752.091 271.594L751.12 267.837L755.391 267.738L760.632 263.486L759.371 258.641L759.565 258.443L759.371 256.762L753.547 221.76L750.926 206.83L750.635 205.248L750.344 203.963L750.344 203.963Z" fill="#F9F9F9" stroke="black" stroke-width="0.970631" stroke-linejoin="round"/>
<path d="M693.174 323.108L692.883 322.317L692.3 322.119L691.912 323.405L692.009 323.504L693.077 323.405L693.174 323.108H693.174ZM759.565 258.443L759.371 258.641L760.633 263.486L755.391 267.738L751.12 267.837L752.091 271.594L745.976 279.801L746.073 282.668L739.182 282.075L736.658 287.117L731.999 286.425L728.893 288.798L728.311 291.073L722.875 288.996L718.507 290.479H714.916L713.46 293.248L713.072 293.347V293.643L711.616 297.005L713.266 299.378L707.151 303.036L708.607 307.387L706.763 309.562L699.289 307.486L697.347 312.133L697.93 312.726L698.124 313.122L697.25 321.23L696.862 321.427L694.338 323.009L694.241 323.306L697.056 322.911L716.663 320.241L715.692 316.286L718.992 316.187L758.497 310.848L786.257 306.102L786.645 305.805L787.325 305.014L794.605 301.059L800.234 293.544L801.011 290.974L804.699 288.007L809.358 281.976L810.038 280.987L809.746 280.888H807.32L804.214 279.108L798.681 272.286L796.74 265.365V265.167L796.546 264.969L792.469 262.596L790.625 259.432L786.937 263.091L784.607 263.684L781.695 262.497L779.172 264.475L773.93 262.102L772.571 262.695L767.621 258.345L765.097 257.059L760.341 257.652L759.565 258.443Z" fill="#F9F9F9" stroke="black" stroke-width="0.970631" stroke-linejoin="round"/>
<path d="M890.212 338.434L889.144 339.522L889.338 339.719L890.212 338.434ZM890.988 332.699L890.503 333.49L890.697 334.281L890.988 332.699ZM896.812 323.504L895.356 324.492L894.58 325.679L896.812 323.504ZM909.333 317.275L908.751 316.879L907.489 316.78L909.333 317.275V317.275ZM906.713 316.681H905.839L904.383 317.472L906.713 316.681ZM909.721 317.769L912.536 310.65L910.595 313.616L909.721 317.769ZM913.895 308.376L915.157 306.497H914.478L913.895 308.376ZM922.049 300.663L919.913 289.688L921.757 295.423L922.049 300.663ZM910.207 275.648L910.013 275.747L909.721 275.846H909.819L915.157 285.041L919.331 289.293L910.207 275.648L910.207 275.648ZM908.46 276.241L907.683 276.439L907.877 276.538H909.527L909.333 275.945L909.042 276.043H908.751V276.241L908.557 276.34L908.46 276.241V276.241ZM818.676 298.785L818.191 300.268L818.288 304.52L817.22 304.421L814.697 309.661L811.882 309.958L806.641 315.198L804.311 314.308L801.302 318.857L793.343 326.173L789.46 327.162L785.384 331.018L785.19 333.589L781.598 335.567L781.695 339.917V340.906L782.957 340.609L796.546 337.742L800.234 336.951L801.496 336.654H801.787L834.012 326.272L839.448 329.14L850.416 329.535L858.472 327.953L880.117 341.895L880.506 341.598L890.503 337.445L890.6 332.007L894.192 325.382L898.074 321.625L906.13 316.187L907.198 314.209L909.333 315.198L910.304 308.672L909.139 310.946L905.063 312.331L901.18 312.43L905.936 308.87L904.48 307.288L906.13 303.729L897.006 302.245L896.618 301.751L904.383 300.268L906.907 301.553L910.11 301.257L912.731 299.279L914.672 295.423L916.419 294.929L916.128 289.49L913.895 287.315L911.663 289.392L912.148 294.632L910.498 288.205L909.236 287.908L899.627 291.962L903.898 287.711L904.092 286.03L908.557 284.942L909.819 281.58L912.828 283.36L909.625 278.515L907.392 276.538L868.567 287.81L843.816 294.237L818.773 298.983L818.676 298.785H818.676Z" fill="#F9F9F9" stroke="black" stroke-width="0.970631" stroke-linejoin="round"/>
<path d="M818.191 210.489L815.764 199.81L815.279 197.635L812.561 185.473L809.067 187.747L801.593 193.581L796.74 199.612L792.955 200.206L785.966 204.26L782.083 201.886L770.339 200.502L764.127 202.084L758.012 203.567L751.606 204.952L750.635 205.248L750.926 206.83L753.547 221.761L759.371 256.763L759.565 258.443L760.341 257.652L765.097 257.059L767.621 258.345L772.571 262.695L773.93 262.102L779.172 264.475L781.695 262.497L784.607 263.684L786.937 263.091L790.625 259.432L792.469 262.596L796.546 264.969L796.74 265.167L800.914 263.091L802.37 259.828L801.205 256.466L804.505 251.324L806.932 250.929L806.64 246.578L810.62 241.041L811.299 241.832L814.891 239.064L817.997 234.318L818.482 212.664L818.676 212.565L818.191 210.489V210.489Z" fill="#F9F9F9" stroke="black" stroke-width="0.970631" stroke-linejoin="round"/>
<path d="M786.257 306.102L758.497 310.848L718.992 316.187L715.692 316.286L716.663 320.241L697.056 322.911L694.241 323.306V323.405L693.465 324.394L693.077 324.295V323.504V323.405L692.009 323.504L692.106 323.603L692.688 326.371L690.747 328.843L690.553 333.391V334.182V334.281L687.641 340.016L688.224 344.07L685.506 348.421L686.476 352.376L682.982 355.639L683.176 355.836L685.312 355.639L704.724 353.167L713.266 351.98L718.119 351.288H718.313L718.216 351.09L734.523 348.816L742.288 347.827L757.818 345.257L760.73 344.762L762.477 344.564L770.727 342.982L772.765 342.587L780.336 341.104L781.695 340.906V339.917L781.598 335.567L785.189 333.589L785.384 331.018L789.46 327.162L793.343 326.174L801.302 318.857L804.311 314.308L806.64 315.198L811.882 309.958L814.697 309.661L817.22 304.421L818.288 304.52L818.191 300.268L818.676 298.785L817.123 299.082L811.591 300.664L804.99 302.048L788.393 305.508L786.645 305.805L786.257 306.102L786.257 306.102Z" fill="#F9F9F9" stroke="black" stroke-width="0.970631" stroke-linejoin="round"/>
<path d="M908.751 276.043H909.042L909.333 275.944L909.139 275.45L908.751 276.043V276.043ZM905.451 264.969V265.464L905.936 265.167L905.451 264.969ZM907.198 261.509L907.101 260.718L907.198 261.509ZM906.615 262.695L906.421 263.98L906.13 264.475L906.615 262.695ZM907.489 260.124L907.586 259.531L907.392 260.124H907.489H907.489ZM908.071 257.455L908.363 256.763L907.877 258.542L908.071 257.455ZM908.169 255.972L908.557 253.796L908.071 254.291L908.169 255.972ZM909.916 246.183L910.11 245.293L910.013 245.491L909.916 246.183H909.916ZM909.527 243.909L908.266 244.403L906.324 245.293L905.645 246.183L905.936 246.282L903.607 261.014L904.48 263.387L905.839 257.257L908.363 249.248L909.527 244.008V243.909ZM911.469 243.118L911.177 243.217L911.08 243.612L910.595 246.677L910.983 245.59L911.469 243.118V243.118ZM810.038 280.987L809.358 281.976L804.699 288.007L801.011 290.974L800.234 293.544L794.605 301.059L787.325 305.014L786.646 305.805L788.393 305.508L804.99 302.048L811.591 300.663L817.123 299.081L818.676 298.785L818.773 298.983L843.816 294.237L868.567 287.81L907.392 276.538L907.101 276.043L907.004 275.747L907.683 276.439L908.46 276.241L908.363 276.142L907.683 272.78L908.168 272.879L909.721 275.846L910.013 275.747L910.207 275.648L909.819 274.857L905.839 268.628L900.889 269.517L898.656 271.396L896.521 269.419L889.241 266.947L884.194 266.749L893.997 265.859L899.433 269.616L900.986 267.144L896.618 261.509L899.724 261.706L898.074 257.158L894.191 257.356L884.97 249.742H883.806L896.812 256.268L895.939 251.72L896.812 250.237L890.212 247.666L884.485 247.27L881.67 244.7L879.341 246.183L878.467 239.36L879.438 239.558L879.244 234.021L879.05 233.823L878.855 233.922L878.661 233.823L878.176 233.428L877.885 233.131L874.779 231.747L871.576 229.374L867.111 228.187L866.82 228.088V228.187L866.237 232.34L857.21 228.385L857.404 234.12L852.454 243.711L849.445 247.073L847.504 252.906L841.583 250.83L838.671 264.277L836.342 268.825L835.953 274.758L834.206 277.625L827.703 279.603L822.365 283.854L819.841 284.25L817.414 286.425L811.299 284.151L810.232 281.086L810.038 280.987L810.038 280.987Z" fill="#F9F9F9" stroke="black" stroke-width="0.970631" stroke-linejoin="round"/>
<path d="M705.792 137.321L703.365 140.386L701.909 144.835L702.589 147.307L705.792 137.321ZM650.078 114.085L651.534 112.008L650.466 112.997L650.078 114.085ZM652.31 110.822L651.825 110.229L650.757 110.921L652.31 110.822V110.822ZM631.15 116.359L628.918 118.93L629.986 130.795L623.774 136.53L622.609 142.067L626.006 145.231L625.035 158.875L628.627 161.644L630.956 161.842L638.333 166.39L642.992 171.334L648.913 174.399L650.272 182.012V182.507L653.087 185.967L652.31 188.637L653.281 194.471L656.193 198.525L661.531 201.392L661.434 201.886L682.594 199.415L690.456 198.426L703.559 196.547L703.171 195.064V190.417L700.55 185.473L699.871 179.244L701.133 172.323L700.453 166.983L702.783 160.359L701.909 159.271L702.103 153.141L703.365 148.493L701.909 146.911L699.094 147.9L697.541 152.053L693.853 154.228L695.018 148.988L698.318 144.538L698.512 142.561L698.609 142.462L693.95 137.716V130.992L688.709 126.642L681.526 126.148L674.149 124.17L658.231 119.226L655.125 117.446L654.834 117.743L649.883 117.051L648.233 118.04L648.913 110.822L640.954 114.975L631.247 116.557L631.15 116.359V116.359ZM650.175 111.118L649.981 110.426L649.301 110.723L650.175 111.118ZM646.68 110.426L646.972 109.833L646.777 109.635L646.68 110.426ZM653.766 108.745L653.475 107.361L653.184 109.042L653.766 108.745Z" fill="#F9F9F9" stroke="black" stroke-width="0.970631" stroke-linejoin="round"/>
<path d="M836.73 227.891L822.947 231.351L818.676 212.565L818.482 212.664L817.997 234.318L814.891 239.064L811.299 241.832L810.62 241.041L806.64 246.578L806.932 250.929L804.505 251.324L801.205 256.466L802.37 259.828L800.914 263.091L796.74 265.167V265.365L798.681 272.286L804.214 279.109L807.32 280.888H809.746L810.038 280.987L810.232 281.086L811.299 284.151L817.414 286.425L819.841 284.25L822.365 283.855L827.703 279.603L834.206 277.625L835.953 274.758L836.342 268.826L838.671 264.277L841.583 250.83L847.504 252.907L849.445 247.073L852.454 243.711L857.404 234.12L857.21 228.385L866.237 232.34L866.82 228.188V228.089L864.005 223.145L858.181 222.453L854.784 225.122V227.1L851.872 227.792L847.601 230.857L845.369 231.352L840.904 237.778L838.671 227.396L836.73 227.891V227.891Z" fill="#F9F9F9" stroke="black" stroke-width="0.970631" stroke-linejoin="round"/>
<path d="M893.803 211.576L894.191 213.059L902.248 236.493L911.469 233.724L911.372 233.527H911.566L911.857 233.626L912.051 233.527L911.857 233.131L909.527 226.803L898.171 215.828L898.656 208.215H896.327L894.58 209.599L893.803 211.576H893.803Z" fill="#F9F9F9" stroke="black" stroke-width="0.970631" stroke-linejoin="round"/>
<path d="M878.176 233.428L878.661 233.823L878.855 233.922L879.05 233.823L879.244 233.922L879.923 234.318L880.117 234.614V235.307L880.311 235.702L881.573 233.329L880.214 232.538L878.564 232.637L878.176 233.428V233.428Z" fill="#F9F9F9" stroke="black" stroke-width="0.970631" stroke-linejoin="round"/>
<path d="M911.566 242.722L912.245 237.383L911.663 241.338L911.274 243.019L911.177 243.217L911.469 243.118L911.566 242.722V242.722ZM912.051 233.527L911.857 233.626L912.051 234.219V235.405V233.527V233.527ZM838.671 227.396L840.904 237.778L845.369 231.351L847.601 230.857L851.872 227.792L854.784 227.1V225.122L858.181 222.453L864.005 223.145L866.82 228.089L867.111 228.187L871.576 229.374L874.779 231.747L877.885 233.131L878.176 233.428L878.564 232.637L880.214 232.538L881.573 233.329L880.311 235.702V235.801L878.467 241.536L884.485 245.491L890.503 245.787L894.483 247.666L892.833 242.92L887.688 241.14L886.426 237.086L889.629 241.437L892.25 241.832L889.921 239.459L888.076 232.439L888.562 228.385L886.523 223.936L888.659 222.156L890.212 216.421L889.629 224.925L891.279 227.792L892.833 224.43L893.706 229.967L892.056 234.021L896.812 235.801L892.735 237.185L894.871 241.239L898.365 242.426L900.306 238.965L900.112 243.81L903.412 243.711L905.548 246.183H905.645L906.324 245.293L908.266 244.403L909.527 243.909L909.43 243.711L911.954 236.097V235.801L911.469 233.823V233.724L902.248 236.493L894.191 213.059L893.803 211.576L892.153 212.071L885.262 214.246L847.31 225.023L840.418 226.902L838.671 227.396V227.396Z" fill="#F9F9F9" stroke="black" stroke-width="0.970631" stroke-linejoin="round"/>
<path d="M916.807 211.181L916.322 209.994V211.181H916.807ZM917.778 207.522L918.069 204.556L917.487 207.127L917.778 207.522ZM913.798 177.168L903.607 174.597L901.859 174.102L900.209 173.707L896.133 182.902L897.88 185.078L897.783 191.702L899.627 191.999L903.412 202.084L903.218 202.381L898.462 209.5L898.947 214.938L910.401 218.893L910.498 223.441L913.119 219.684L913.507 214.246L916.225 212.367L915.157 208.313L917.195 203.468V192.889L916.516 189.428L911.954 189.527L913.119 184.781L913.798 177.168V177.168Z" fill="#F9F9F9" stroke="black" stroke-width="0.970631" stroke-linejoin="round"/>
<path d="M913.507 185.176L912.051 187.253L911.663 187.846L913.507 185.176ZM926.902 180.332L931.755 175.981V175.783L926.902 180.332ZM914.186 183.397V180.035L913.895 181.815L914.186 183.397ZM936.705 167.577L935.54 167.28L935.346 168.17L936.705 167.577ZM939.326 165.797L939.229 166.786L939.423 166.192L939.326 165.797H939.326ZM936.608 165.896L930.105 172.026L920.107 176.377L917.487 178.651L917.292 180.826L914.575 183.1L914.963 186.066L919.137 184.385L925.252 179.343L932.046 175.684L942.335 165.797L935.055 171.433L932.725 172.421L936.608 165.896ZM939.617 161.743L940.005 161.15L938.84 162.534L939.617 161.743ZM830.518 158.084L828.965 157.887L830.13 159.469L830.518 158.084ZM862.743 127.828L862.937 126.741L862.161 127.73L862.743 127.829V127.828ZM863.228 120.709L862.84 120.907L862.355 121.995L863.228 120.709ZM822.171 176.871L822.85 179.837L827.994 181.123L857.502 172.916L887.203 163.819L892.638 168.071L893.706 170.543L900.015 173.311L900.209 173.707L901.859 174.102L903.607 174.597L913.798 177.168L913.604 176.673L914.478 180.727L916.419 180.233L917.487 175.783V175.684L915.739 174.003L918.263 170.839L917.098 169.356L913.41 154.822L913.216 153.833L912.73 153.536L912.439 149.186L912.148 144.44L911.857 139.298V139.001L911.663 139.1L906.81 122.885L901.665 114.678L900.209 104.889L895.841 94.5073L895.259 94.804L874.973 101.725L870.896 106.175L866.334 115.073L866.528 117.051L860.51 126.345L864.199 127.631L865.267 134.651L860.996 140.386L848.183 148.296L845.757 147.307L836.245 148.691L827.412 154.129L827.897 156.997L831.003 159.765L829.256 168.466L822.268 176.772L822.171 176.871V176.871Z" fill="#F9F9F9" stroke="black" stroke-width="0.970631" stroke-linejoin="round"/>
<path d="M900.015 173.311L893.706 170.543L892.638 168.071L887.203 163.819L857.502 172.916L827.994 181.123L822.85 179.837L822.171 176.871L820.521 178.156L817.9 180.035L813.144 184.979L812.561 185.473L815.279 197.635L815.764 199.81L818.191 210.489L818.676 212.565L822.947 231.351L836.73 227.891L838.671 227.396L840.418 226.902L847.31 225.023L885.262 214.246L892.153 212.071L893.803 211.576L894.58 209.599L896.327 208.215H898.656L898.948 207.325L902.733 202.974L903.121 202.282L903.412 202.084L899.627 191.999L897.783 191.702L897.88 185.078L896.133 182.902L900.209 173.707L900.015 173.311Z" fill="#F9F9F9" stroke="black" stroke-width="0.970631" stroke-linejoin="round"/>
<path d="M946.8 120.611H946.703L946.897 120.709L946.799 120.611H946.8ZM953.982 99.55L953.206 98.3634V98.9567L953.982 99.55ZM952.623 98.4623V97.4736L952.526 96.8803L952.623 98.4623ZM956.118 94.3095L955.924 94.2107L956.021 94.5073L956.118 94.3095L956.118 94.3095ZM965.824 89.3657L965.63 87.8826L965.242 88.5747L965.824 89.3657ZM963.397 89.959L963.495 88.8714L962.33 89.0691L963.397 89.959ZM966.989 86.6961H966.6V86.8938L966.989 86.6961ZM962.136 88.1792L961.262 87.9815L961.165 88.8714L962.136 88.1792ZM967.086 85.1141L967.959 85.8062L967.668 85.0152L967.086 85.1141ZM964.465 85.213L963.591 86.8938L964.756 86.3006L964.465 85.213ZM960.291 85.3118L959.903 85.9051L960.194 86.795L960.291 85.3118ZM966.018 82.0489L965.921 81.2579L965.63 81.7523L966.018 82.0489H966.018ZM965.533 82.4444L964.659 81.6534V82.3456L965.533 82.4444V82.4444ZM960.097 84.7186L959.903 83.6309L959.515 84.5208L960.097 84.7186ZM969.318 81.2579L967.862 83.4332L967.765 81.8512L969.318 81.2579ZM976.404 74.6332L975.724 73.6445L975.336 73.8422L976.404 74.6332ZM979.025 70.1838L978.442 69.8872L978.345 70.1838H979.025ZM980.286 62.4715H979.413L980.383 62.7681L980.286 62.4715H980.286ZM981.742 63.4603L981.451 61.6805L980.675 61.5816L981.742 63.4603ZM980.189 61.8783L979.995 59.9996L979.316 61.285L980.189 61.8783ZM923.893 77.4018L937.967 111.02L938.161 111.712L944.276 119.325V119.226L945.247 118.93L945.441 113.294L946.994 111.316L947.964 106.076L947.091 105.186L948.741 100.044L954.371 97.3746L958.059 92.8263L959.418 84.9163L965.339 84.5208L964.562 80.4669L971.939 77.5995L972.424 73.1501L974.171 73.5456L979.025 69.4917L981.16 64.2512L976.21 59.2086L970.968 58.1209L969.027 54.067V51.694L965.824 52.6828L962.233 51.3974V47.3435L952.526 25.9863L945.441 22.229L937.579 28.9526L935.443 28.5571L933.599 25.0964L931.075 26.0852L927.484 44.2783L928.746 50.2109L929.814 62.2737L926.999 71.568L928.94 73.0512L926.61 77.5995L924.087 77.204L923.893 77.4017V77.4018Z" fill="#F9F9F9" stroke="black" stroke-width="0.970631" stroke-linejoin="round"/>
<path d="M719.963 140.781L719.478 139.99L719.381 140.979L719.963 140.781ZM721.516 139.001L720.351 137.419L720.157 138.112L721.516 139.001ZM722.487 131.882L721.516 130.992V131.19L722.487 131.882ZM720.06 209.302L732.096 207.325L735.493 206.633L750.344 203.963L750.635 205.248L751.606 204.952L758.012 203.567L764.127 202.084L770.339 200.502L770.242 200.206L773.445 193.779L773.154 188.439L776.745 179.244L779.56 180.925L780.628 178.848L780.336 170.938L777.716 165.995L773.833 155.514L770.436 151.658L768.689 151.163L762.38 155.613L763.059 156.502L759.759 162.831L756.556 162.237L755.585 155.613L756.944 155.118L759.759 148.494L760.05 136.826L755.682 126.939L745.976 125.258L745.005 123.775L735.978 121.105L731.902 126.246L732.29 130.696L729.184 134.651L729.864 140.781L726.855 142.956V135.244L724.137 141.078L720.934 146.219L718.798 147.9L719.866 153.338L718.507 158.974L719.284 165.995L718.313 169.455L725.302 183.1L726.175 188.34L725.302 198.03L720.643 208.907L720.06 209.302ZM740.832 120.215L738.308 120.413L739.861 121.599L740.832 120.215ZM726.078 122.786H725.302L726.175 123.181L726.078 122.786H726.078ZM743.064 110.229L742.094 108.647L741.705 108.745L743.064 110.229V110.229ZM655.125 117.446L658.231 119.226L674.149 124.17L681.526 126.148L688.709 126.642L693.95 130.992V137.716L698.609 142.462V142.363L702.395 131.19L706.957 127.927L710.451 123.972L711.033 127.532L714.625 121.896L723.263 118.534L723.943 117.15L732.678 118.237L736.076 120.017L737.726 115.667L739.279 116.655L746.073 115.568L744.423 112.799L741.414 111.02L741.996 104.593L736.076 107.954L730.64 107.262L728.893 103.011L729.475 101.626L722.098 105.186L717.342 105.482L708.801 110.822L707.83 112.799L702.589 111.514L699.289 112.997L692.688 107.163L678.032 102.615L677.741 100.835L668.326 110.031L662.987 111.415L655.416 117.249L655.125 117.446V117.446ZM689.485 95.0017L678.129 100.736L681.914 104.494L683.37 100.736L687.253 95.8916L689.485 95.0017ZM676.77 81.4557L669.005 86.8939L668.617 89.5635L674.732 85.0152L676.77 81.4557Z" fill="#F9F9F9" stroke="black" stroke-width="0.970631" stroke-linejoin="round"/>
<path d="M101.283 553.093L100.797 553.291L101.186 553.39L101.283 553.093H101.283ZM104.874 553.687V553.786V553.687ZM103.127 552.006V552.302L103.321 552.203L103.127 552.006ZM102.253 551.511V551.412V551.511ZM104.098 552.5V552.302L104.001 552.401L104.098 552.5V552.5ZM103.903 552.302V552.203H103.709L103.903 552.302ZM28.1943 487.341L28.0972 488.033L28.2913 490.011L28.1943 487.341H28.1943ZM27.7089 484.671L27.806 485.561L27.9031 485.265L27.7089 484.671H27.7089ZM103.903 551.116L104.001 550.523L103.612 550.72L103.904 551.116H103.903ZM114.969 555.961L114.872 555.862L115.066 556.257L114.969 555.961L114.969 555.961ZM107.786 552.5L106.718 551.511V553.884L107.786 552.5ZM110.213 554.675L110.115 553.983L108.465 553.884L110.213 554.675H110.213ZM116.036 556.06L115.939 556.257H116.133L116.036 556.06H116.036ZM116.425 556.159H116.23L116.619 556.258L116.425 556.159ZM117.589 556.554H117.492H117.395H117.589H117.589ZM31.8827 489.516L32.2709 489.615L32.5621 489.516H31.8827ZM115.454 555.17L114.677 555.071L114.969 555.368L115.454 555.17ZM26.6412 481.804L25.2824 481.211L25.1853 481.507L26.6412 481.804H26.6412ZM117.881 555.368L117.686 555.269V555.368H117.881ZM123.801 556.554L120.016 556.851L119.142 557.246L123.801 556.554ZM19.7498 466.281H18.6821L18.8762 466.577L19.7498 466.281ZM135.546 561.102V560.707H135.352L135.546 561.102ZM140.593 561.201L140.787 561.004L140.593 560.806V561.201ZM144.379 562.289L144.573 562.19H144.476L144.379 562.289H144.379ZM141.273 560.509L141.176 560.114H140.982L141.273 560.509H141.273ZM147.776 561.992L147.679 562.091H147.776V561.992ZM20.3321 461.238L18.8762 461.436L20.7204 463.117L20.3321 461.238ZM142.632 560.509L142.826 559.916H142.729L142.632 560.509H142.632ZM159.035 559.026L159.132 558.828L158.938 558.729L159.035 559.026L159.035 559.026ZM156.609 558.136L153.212 561.201L155.638 561.004L158.453 558.729L156.609 558.136ZM162.724 559.224L162.044 559.026L162.53 559.422L162.724 559.224ZM164.083 559.323L163.015 559.026L162.821 559.125L164.083 559.323V559.323ZM160.394 557.938H159.327L161.171 558.433L160.394 557.938ZM164.859 558.927L164.762 558.729L164.374 558.828L164.859 558.927L164.859 558.927ZM161.947 557.741L161.559 557.543V558.631L161.947 557.741ZM174.371 560.213L174.274 560.114H174.08L174.371 560.213H174.371ZM174.565 560.114V560.015L174.371 559.916L174.565 560.114V560.114ZM172.915 559.52L173.109 559.916V559.817L172.915 559.52ZM173.789 559.52L172.915 559.224L173.983 560.015L173.789 559.52ZM175.051 558.532V558.631V558.532ZM186.601 560.015L186.407 559.619H186.31L186.601 560.015H186.601ZM291.041 553.39L290.847 553.192L290.944 553.39H291.041H291.041ZM173.401 556.455V556.356L173.304 556.455H173.401ZM293.856 551.61L294.147 552.006H294.341L293.856 551.61ZM187.766 559.026L187.669 559.125V559.422L187.766 559.026V559.026ZM175.73 557.246L175.924 556.455H175.827L175.73 557.246H175.73ZM299.486 549.336L298.612 549.831L299.389 550.226L299.486 549.336H299.486ZM177.477 556.752L177.38 556.554L177.477 556.752ZM170.198 554.577L167.771 555.071L165.636 557.938L170.198 554.577ZM187.572 558.334L186.99 558.828L187.572 558.729V558.334V558.334ZM299.486 548.842L299.292 548.446L299.194 548.644L299.486 548.842H299.486ZM178.254 555.763L177.574 555.664L178.254 556.356V555.763V555.763ZM293.08 550.127L292.885 550.325L293.08 551.017V550.127ZM179.807 555.664L179.516 555.763L179.904 556.06L179.807 555.664L179.807 555.664ZM186.99 557.741H186.698L186.504 557.543L186.99 557.741ZM179.03 555.664L178.545 555.368L178.739 555.664H179.03ZM185.534 556.752L184.66 557.049L184.078 558.631L185.534 556.752ZM290.944 549.831V550.523L291.332 550.028L290.944 549.831ZM174.08 553.588L174.857 553.39H174.76L174.08 553.588H174.08ZM173.109 552.995L172.915 552.797V552.896L173.109 552.995V552.995ZM290.944 549.138L290.75 549.04L290.653 549.336L290.944 549.138L290.944 549.138ZM184.466 555.071L184.272 554.972L184.078 555.269L184.466 555.071V555.071ZM289.974 549.336L290.071 548.842L289.876 548.743L289.974 549.336H289.974ZM289.197 548.842L288.906 549.237L289.391 549.336L289.197 548.842ZM188.543 553.687L188.348 553.489H188.251L188.542 553.687H188.543ZM288.906 547.062L289.682 547.359L289.974 546.963L288.906 547.062ZM290.071 546.37L289.779 546.568L290.265 546.864L290.071 546.37ZM287.838 546.963L287.644 546.568L287.45 546.765L287.838 546.963ZM297.544 543.305L296.283 546.963L297.544 546.172V543.305ZM182.525 550.918H182.428H182.525ZM289.003 544.689L288.129 545.579L288.323 546.568L289.003 544.689ZM198.637 552.599V552.204L198.54 552.401L198.637 552.599ZM287.935 543.7L290.75 548.051L297.059 552.105L295.603 548.644L289.585 543.404L287.935 543.7ZM194.755 551.017L194.657 550.72L194.463 550.819L194.755 551.017H194.755ZM291.235 542.019L290.847 543.503L291.527 543.008L291.235 542.019ZM293.274 542.019L293.177 543.008L294.05 543.305L293.274 542.019H293.274ZM197.861 549.732L197.375 549.633L196.89 549.831L197.861 549.732V549.732ZM207.858 550.523L207.47 551.215L207.664 550.622L207.858 550.523V550.523ZM209.314 550.622L208.44 550.721L208.926 551.314L209.314 550.622ZM150.494 537.966L151.464 538.46L151.27 538.262L150.494 537.966ZM189.028 547.754L189.125 547.655L189.028 547.754ZM189.319 547.655H189.416V547.556L189.319 547.655ZM289.682 540.042L290.168 541.921L291.138 541.327L289.682 540.042ZM191.94 546.568L192.037 546.469L191.94 546.568ZM285.509 540.833L285.994 545.381L286.965 544.392L285.509 540.833ZM285.994 539.35L288.226 542.514L287.935 540.437L285.994 539.35ZM279.102 540.141L278.52 542.019L279.297 540.734L279.102 540.141ZM201.452 544.986L201.355 544.887L201.452 544.986ZM210.673 545.183L210.479 544.887L210.673 545.282V545.183ZM279.297 538.658L283.179 545.183L282.597 540.734L279.297 538.658ZM216.108 542.118L215.817 542.415L216.303 542.613L216.108 542.118ZM214.847 542.316L214.944 542.019H214.555L214.847 542.316H214.847ZM213.876 542.316L211.352 543.997L208.246 548.15L209.799 549.831L216.982 544.392L213.876 542.316ZM275.123 535.889L274.443 535.494V536.087L275.123 535.889ZM213.294 541.13L213.391 541.525L214.07 541.921L213.294 541.13H213.294ZM276.967 534.011L275.026 534.999L276.87 535.592L276.967 534.011H276.967ZM275.705 534.011L275.511 533.813L275.414 534.011H275.705H275.705ZM281.626 532.428L280.85 532.132L280.655 532.725L281.626 532.428ZM277.452 533.121L276.773 533.022V533.219L277.452 533.121V533.121ZM279.588 532.33L283.567 538.262L282.5 532.824L279.588 532.33ZM215.526 538.757L213.197 540.536L214.264 541.723L217.37 539.35L215.526 538.757ZM189.125 534.999L189.028 534.9V534.999H189.125ZM188.057 534.505L187.96 534.011V534.208L188.057 534.505ZM217.856 535.79L217.661 535.889V535.988L217.856 535.79V535.79ZM216.885 535.592H216.788L216.594 535.889L216.885 535.592H216.885ZM219.214 534.801L218.923 534.604V534.703L219.214 534.802V534.801ZM219.991 534.703L219.7 534.505V534.604L219.991 534.703V534.703ZM218.729 534.406H218.341V534.505L218.729 534.406ZM238.045 532.428L238.142 532.132L237.948 532.33L238.045 532.428L238.045 532.428ZM243.966 529.264L245.13 527.781L244.742 528.078L243.966 529.264ZM232.124 529.067L232.512 528.77L232.609 528.375L232.124 529.067H232.124ZM232.124 527.979L231.736 528.276L232.415 528.078L232.124 527.979V527.979ZM216.206 527.979L216.108 527.583H216.011L216.205 527.979H216.206ZM231.736 527.88L231.347 528.276L231.153 528.671L231.736 527.88ZM242.413 526.694H242.51H242.607H242.413H242.413ZM242.898 526.694L242.704 526.595V526.694H242.898ZM241.733 526.595L241.83 526.694V526.595H241.733ZM233.774 527.188L234.162 526.792L233.677 527.188H233.774H233.774ZM234.939 526.298L232.609 530.154L235.618 526.595L234.939 526.298ZM231.93 526.792L231.639 526.397L231.541 526.595L231.93 526.792H231.93ZM239.307 525.903L239.112 525.804L239.21 525.903H239.307H239.307ZM241.83 526.1V525.408L241.636 525.705L241.83 526.1ZM170.586 518.487L165.927 518.289L169.13 521.75L170.586 518.487ZM236.88 525.507L237.074 526.199L237.559 525.408L236.88 525.507V525.507ZM232.997 525.408L232.706 527.583L233.192 526.199L232.997 525.408ZM148.747 508.995L148.844 508.599L148.747 508.995ZM232.027 524.024L232.124 524.321L232.318 524.222L232.027 524.024L232.027 524.024ZM231.542 524.419L231.347 523.826L231.056 524.024L231.542 524.419ZM236.103 523.233V522.837L235.812 523.035L236.103 523.233ZM231.736 522.64V523.628L232.027 522.936L231.736 522.64ZM224.359 521.453V521.156V521.453ZM173.692 509.193L173.886 508.599L173.789 508.698L173.692 509.193L173.692 509.193ZM173.983 508.204L173.886 508.105L173.789 508.204H173.983H173.983ZM178.254 505.831V505.732V505.831ZM178.254 505.435L178.157 505.237L178.254 505.435ZM180.001 502.864H179.904H180.001ZM180.583 503.062L180.195 502.864V502.963L180.583 503.062V503.062ZM180.001 502.667V502.469L179.807 502.667H180.001ZM164.471 498.02L164.277 497.525L164.18 497.229L164.471 498.02H164.471ZM165.927 496.24H166.024L166.121 496.339L165.927 496.24H165.927ZM163.306 495.745L162.53 494.757L163.112 495.548L163.306 495.745ZM161.753 494.163H161.559L161.85 494.262L161.753 494.163H161.753ZM161.753 492.977L161.947 493.076L161.753 492.977ZM187.475 500.788L186.407 500.887L186.99 501.184L187.475 500.788V500.788ZM160.685 491.197L159.909 494.163L162.335 494.559L165.539 497.921L167.48 497.031L160.685 491.197ZM177.671 492.384V492.186V492.285V492.384V492.384ZM172.818 481.903L172.624 481.804L172.721 481.903H172.818H172.818ZM175.633 482.891L175.924 482.793H175.827L175.633 482.891H175.633ZM177.574 482.298H177.866L178.739 481.903L177.574 482.298ZM181.069 481.211L181.263 481.013L180.972 481.211H181.069H181.069ZM181.554 481.112L182.136 480.815L181.651 480.914L181.554 481.112L181.554 481.112ZM183.01 480.518L182.525 480.617V480.716L183.01 480.519V480.518ZM245.324 462.622L244.936 462.325L244.257 462.029L245.324 462.622ZM194.463 460.447L195.337 459.26L194.852 459.656L194.463 460.447ZM195.628 459.062L196.016 458.469L195.822 458.667L195.628 459.062ZM196.211 458.271L196.89 457.678L196.502 457.876L196.211 458.271ZM226.785 458.469L227.271 458.964H227.562L226.785 458.469ZM211.158 451.943L207.179 455.305L204.752 454.613L199.122 457.876L198.055 457.184L191.649 464.501L185.145 465.984L185.728 469.543L188.64 473.597L194.075 478.936L193.202 481.013L197.278 482.793L195.143 483.188L192.522 481.112L193.881 484.177L192.134 485.264L186.601 480.123L182.233 480.914L174.76 483.781L178.157 487.637L177.671 490.011L179.904 492.779L187.281 495.745L192.619 492.977L193.493 495.053L192.037 501.282H187.572L182.331 503.655L182.039 501.974L179.322 503.062L178.06 505.93L173.595 509.39V514.433L175.342 515.224L173.983 519.475L179.807 524.617L183.495 523.035L182.719 529.363L183.786 530.747L188.251 531.736L189.901 533.615L193.784 533.911L195.628 535.889L199.608 534.702L197.764 537.273L196.308 542.514L184.466 550.325L182.913 551.907L180.68 551.017L177.089 551.907L171.945 555.367L180.001 552.994L181.166 554.774L191.551 551.313L191.843 552.698L195.919 548.545L204.461 542.514L205.14 542.909L212.614 536.878L210.673 534.505L213.197 530.253L219.797 522.244L224.844 521.255L226.397 522.343L220.282 524.123L218.632 530.747L218.826 534.307L220.962 534.109L231.25 527.781L232.027 525.408L231.153 521.75L234.259 522.541L236.492 521.057L242.898 525.013L242.413 526.1L256.972 527.979L260.369 526.891L261.34 528.374L273.958 534.505L276.093 533.219L276.288 525.804L277.938 529.165L286.091 535.197L286.77 537.669L293.856 541.723L295.7 546.963L297.447 542.909L301.039 550.028L303.465 545.974L301.524 540.932L294.05 540.141L282.597 528.968L276.385 524.32L271.629 529.066H268.814L262.311 524.716L255.904 524.419L246.78 465.786L245.227 463.017L241.539 460.743L236.006 461.831L231.736 460.941L226.3 458.766L220.573 459.161L219.117 456.393L214.555 455.701L213.779 454.02L211.741 456.393L211.158 451.943Z" fill="#F9F9F9" stroke="black" stroke-width="0.970631" stroke-linejoin="round"/>
<path d="M566.895 138.112L550.491 138.606L510.986 138.903L468.181 137.716L464.396 137.518L464.299 139.792L463.911 148.79L463.619 155.613L463.522 156.997H463.231L463.134 159.568L462.163 180.332L461.387 195.756L461.29 198.426L464.202 198.525L497.106 199.612L524.963 199.909L544.085 199.711L550.2 203.666L555.344 202.183L558.741 202.282L569.321 205.446L572.33 208.511L574.174 208.709V208.017L572.039 204.754L573.398 199.514L571.748 188.538L573.786 188.439L573.592 183.891L568.739 149.087L566.215 144.736L570.097 138.21L570.195 137.914L566.894 138.112L566.895 138.112Z" fill="#F9F9F9" stroke="black" stroke-width="0.970631" stroke-linejoin="round"/>
<path d="M718.313 351.288L718.701 352.079L720.06 352.969L720.643 393.508L720.837 415.755L725.787 446.209L726.175 446.11L730.543 447L731.708 438.2L733.649 443.143L736.949 446.209L743.258 442.451L742.579 441.858L742.773 441.957L738.405 431.773L780.336 424.851L783.151 424.357V424.258L780.53 419.216L780.336 411.998L778.201 408.043L779.269 400.33L781.016 398.353L773.833 385.301L760.827 344.96L760.73 344.762L757.818 345.256L742.288 347.827L734.523 348.816L718.216 351.09L718.313 351.288V351.288Z" fill="#F9F9F9" stroke="black" stroke-width="0.970631" stroke-linejoin="round"/>
</svg>
